{"title":"Total Recall[2012]BRrip[Ac3-5.1]-=[CaLvIn]=-","uid":7847808,"size":954036542,"categoryP":"video","categoryS":"movies","magnet":"?xt=urn:btih:30c7328ad510da1fac01f5d7bdb8744f5e36371c&amp;dn=Total+Recall%5B2012%5DBRrip%5BAc3-5.1%5D-%3D%5BCaLvIn%5D%3D-&amp;tr=udp%3A%2F%2Ftracker.openbittorrent.com%3A80&amp;tr=udp%3A%2F%2Fopen.demonii.com%3A1337&amp;tr=udp%3A%2F%2Ftracker.coppersurfer.tk%3A6969&amp;tr=udp%3A%2F%2Fexodus.desync.com%3A6969","seeders":0,"leechers":1,"uploader":"rhythmtheguru","files":15,"time":1353518160,"description":"General\nComplete name                    : Total Recall[2012]BRrip[Ac3-5.1]-=[CaLvIn]=-\nImdb Link                        : http://www.imdb.com/title/tt1386703/\nFormat                           : AVI\nFormat/Info                      : Audio Video Interleave\nFile size                        : 898 MiB\nDuration                         : 2h 10mn\nOverall bit rate                 : 964 Kbps\nWriting application              : VirtualDubMod 1.5.10.3\nWriting library                  : VirtualDubMod build 2550/release\n\nVideo\nID                               : 0\nFormat                           : MPEG-4 Visual\nFormat profile                   : Advanced Simple@L5\nFormat settings, BVOP            : 2\nFormat settings, QPel            : No\nFormat settings, GMC             : No warppoints\nFormat settings, Matrix          : Default (H.263)\nCodec ID                         : XVID\nCodec ID/Hint                    : XviD\nDuration                         : 2h 10mn\nBit rate                         : 698 Kbps\nWidth                            : 720 pixels\nHeight                           : 304 pixels\nDisplay aspect ratio             : 16:9\nFrame rate                       : 23.976 fps\nColor space                      : YUV\nChroma subsampling               : 4:2:0\nBit depth                        : 8 bits\nScan type                        : Progressive\nCompression mode                 : Lossy\nBits/(Pixel*Frame)               : 0.133\nStream size                      : 651 MiB (72%)\nWriting library                  : XviD 1.2.1 (UTC 2008-12-04)\n\nAudio\nID                               : 1\nFormat                           : AC-3\nFormat/Info                      : Audio Coding 3\nMode extension                   : CM (complete main)\nCodec ID                         : 2000\nDuration                         : 2h 10mn\nBit rate mode                    : Constant\nBit rate                         : 256 Kbps\nChannel(s)                       : 6 channels\nChannel positions                : Front: L C R, Side: L R, LFE\nSampling rate                    : 48.0 KHz\nBit depth                        : 16 bits\nCompression mode                 : Lossy\nStream size                      : 239 MiB (27%)\nAlignment                        : Split accross interleaves\nInterleave, duration             : 42 ms (1.00 video frame)\nInterleave, preload duration     : 500 ms\n\nScreenshot\n &lt;a href=&quot;\nhttp://img11.imageshack.us/img11/2411/82275042.png&quot; rel=&quot;nofollow&quot; target=&quot;_NEW&quot;&gt;\nhttp://img11.imageshack.us/img11/2411/82275042.png&lt;/a&gt; &lt;a href=&quot;\nhttp://img843.imageshack.us/img843/4125/48415944.png&quot; rel=&quot;nofollow&quot; target=&quot;_NEW&quot;&gt;\nhttp://img843.imageshack.us/img843/4125/48415944.png&lt;/a&gt; &lt;a href=&quot;\nhttp://img267.imageshack.us/img267/2230/31086660.png&quot; rel=&quot;nofollow&quot; target=&quot;_NEW&quot;&gt;\nhttp://img267.imageshack.us/img267/2230/31086660.png&lt;/a&gt; &lt;a href=&quot;\nhttp://img17.imageshack.us/img17/9928/69057360.png&quot; rel=&quot;nofollow&quot; target=&quot;_NEW&quot;&gt;\nhttp://img17.imageshack.us/img17/9928/69057360.png&lt;/a&gt; &lt;a href=&quot;\nhttp://img846.imageshack.us/img846/7201/76911104.png&quot; rel=&quot;nofollow&quot; target=&quot;_NEW&quot;&gt;\nhttp://img846.imageshack.us/img846/7201/76911104.png&lt;/a&gt; &lt;a href=&quot;\nhttp://img248.imageshack.us/img248/1788/48045894.png&quot; rel=&quot;nofollow&quot; target=&quot;_NEW&quot;&gt;\nhttp://img248.imageshack.us/img248/1788/48045894.png&lt;/a&gt; &lt;a href=&quot;\nhttp://img547.imageshack.us/img547/6913/69609415.png&quot; rel=&quot;nofollow&quot; target=&quot;_NEW&quot;&gt;\nhttp://img547.imageshack.us/img547/6913/69609415.png&lt;/a&gt; &lt;a href=&quot;\nhttp://img254.imageshack.us/img254/552/53326333.png&quot; rel=&quot;nofollow&quot; target=&quot;_NEW&quot;&gt;\nhttp://img254.imageshack.us/img254/552/53326333.png&lt;/a&gt; &lt;a href=&quot;\nhttp://img443.imageshack.us/img443/1529/47653142.png&quot; rel=&quot;nofollow&quot; target=&quot;_NEW&quot;&gt;\nhttp://img443.imageshack.us/img443/1529/47653142.png&lt;/a&gt; &lt;a href=&quot;\nhttp://img801.imageshack.us/img801/879/38391895.png&quot; rel=&quot;nofollow&quot; target=&quot;_NEW&quot;&gt;\nhttp://img801.imageshack.us/img801/879/38391895.png&lt;/a&gt;","torrent":{"xt":"urn:btih:30c7328ad510da1fac01f5d7bdb8744f5e36371c","amp;dn":"Total+Recall%5B2012%5DBRrip%5BAc3-5.1%5D-%3D%5BCaLvIn%5D%3D-","amp;tr":["udp%3A%2F%2Ftracker.openbittorrent.com%3A80","udp%3A%2F%2Fopen.demonii.com%3A1337","udp%3A%2F%2Ftracker.coppersurfer.tk%3A6969","udp%3A%2F%2Fexodus.desync.com%3A6969"],"infoHash":"30c7328ad510da1fac01f5d7bdb8744f5e36371c","infoHashBuffer":{"type":"Buffer","data":[48,199,50,138,213,16,218,31,172,1,245,215,189,184,116,79,94,54,55,28]},"announce":[],"urlList":[]}}